<?xml version="1.0" encoding="UTF-8"?>
<svg id="Layer_1" data-name="Layer 1" xmlns="http://www.w3.org/2000/svg" viewBox="0 0 158.21 212.35">
  <path d="M147.41,51.63c13.96,27.77,11.7,58.31,3.51,74.5-4.2,8.3-33.47,44.65-23.62,20.92C141.31,113.27,89.18,13.71,89.18,13.71c0,0,27.04,6.04,40.17,17.95" fill="#bd8675" opacity=".76"/>
  <path d="M3.85,115.03s19.41-11.04,25.72-8.46c8.54,3.49,19.02,30.91,15.87,37.95-4.8,10.76-23.51,2.91-29.75-5.41-4.42-5.9-11.84-24.08-11.84-24.08Z" fill="#385662" opacity=".74"/>
  <path d="M9.26,56.08c12.16-19.31,24.94-48.63,122.58-17.57,39.87,12.68-90.81,11.55-127.99,30.75" fill="#00416b" opacity=".55"/>
  <path d="M.46,98.97c.08-4.51,22.9,39.68,21.48,21.23-13.61-176.92,39.3.51,24.97,34.66-6.31,15.05-29.7-9.86-37.36-26.9C2.86,113.04.33,106.63.46,98.97Z" fill="#b98675" opacity=".73"/>
  <path d="M108.49,140.96c-13.54,8.89-51.11,4.22-63.55,14.53-27.86,23.09,28.3-59.82,14.28-72.03-40.58-35.33,158.38-28.37,71.44,25.69-8.31,5.17-14,26.43-22.17,31.81Z" fill="#d4d193" opacity=".58"/>
  <text transform="translate(35.17 162.77) scale(1.59 1)" font-family="ApotekExtraCond-Bold, &apos;Apotek ExtraCond&apos;" font-size="196.84" font-weight="700" stroke="#000" stroke-miterlimit="10" stroke-width=".75"><tspan x="0" y="0">f</tspan></text>
  <circle cx="79.1" cy="92.44" r="78.73" fill="none" stroke="#000" stroke-miterlimit="10" stroke-width=".75"/>
</svg>