<?xml version="1.0" encoding="UTF-8"?>
<svg id="Layer_1" data-name="Layer 1" xmlns="http://www.w3.org/2000/svg" xmlns:xlink="http://www.w3.org/1999/xlink" viewBox="0 0 153.23 146.45">
  <defs>
    <radialGradient id="radial-gradient" cx="107.78" cy="84.07" fx="153.93" fy="110.22" r="53.04" gradientTransform="translate(-49.35 -27.11) scale(1.33 1.19)" gradientUnits="userSpaceOnUse">
      <stop offset="0" stop-color="#889f8f"/>
      <stop offset=".55" stop-color="#5c8670"/>
      <stop offset=".94" stop-color="#1e5943"/>
    </radialGradient>
    <radialGradient id="radial-gradient-2" cx="32.94" cy="68.94" fx="32.94" fy="68.94" r="17.58" gradientTransform="translate(0 142.22) scale(1 -1)" gradientUnits="userSpaceOnUse">
      <stop offset="0" stop-color="#889f8f"/>
      <stop offset=".15" stop-color="#819a8a"/>
      <stop offset=".87" stop-color="#245d48"/>
      <stop offset="1" stop-color="#1e5943"/>
    </radialGradient>
    <radialGradient id="radial-gradient-3" cx="32.94" cy="68.94" fx="32.94" fy="68.94" r="18.01" gradientTransform="translate(0 142.22) scale(1 -1)" gradientUnits="userSpaceOnUse">
      <stop offset="0" stop-color="#889f8f"/>
      <stop offset=".15" stop-color="#819a8a"/>
      <stop offset=".87" stop-color="#245d48"/>
      <stop offset="1" stop-color="#1e5943"/>
    </radialGradient>
  </defs>
  <path d="M50.18.78l93.44-.16c3.24,0,9.11-.47,9.11,7.86v12.59c0,2.58-2.35,4.68-5.23,4.68h-30.22c-2.21,0-4,1.61-3.99,3.59l.67,111.33c.02,2.92-2.62,5.29-5.87,5.29h-22.73c-3.19,0-5.42-1.79-5.42-4.65l-1.55-112.01c0-1.87-5.07-3.54-7.16-3.54h-23.95c-2.83,0-7.05,1.8-11.45-5.01l.74-12.27c0-7.61,10.31-7.7,13.61-7.7Z" fill="url(#radial-gradient)" stroke="#000" stroke-miterlimit="10"/>
  <line x1="1.98" y1="104.89" x2="63.92" y2="104.89" fill="none" stroke="#231f20" stroke-linecap="round" stroke-miterlimit="10"/>
  <path d="M29.99,59.13V2.94c0-1.35,1.33-2.44,2.97-2.44h0c1.64,0,2.97,1.09,2.97,2.44v54.23" fill="none" stroke="#000" stroke-miterlimit="10"/>
  <path d="M35.92,99.22v33.09c0,1.9-1.33,3.45-2.97,3.45h0c-1.64,0-2.97-1.54-2.97-3.45v-31.45" fill="none" stroke="#000" stroke-miterlimit="10"/>
  <line x1="32.95" y1="67.62" x2="35.83" y2="57.17" fill="none" stroke="#000" stroke-miterlimit="10"/>
  <path d="M29.95,100.85l-8.39,30.5c-.43,1.55-2.05,2.47-3.62,2.06h0c-1.57-.42-2.5-2.01-2.07-3.57l13.83-50.29" fill="none" stroke="#000" stroke-miterlimit="10"/>
  <line x1="32.95" y1="90.08" x2="29.99" y2="100.86" fill="none" stroke="#000" stroke-miterlimit="10"/>
  <path d="M26.29,67.13L8.45,6.79c-.46-1.54.45-3.16,2.02-3.61h0c1.57-.45,3.22.44,3.67,1.99l18.28,61.83" fill="none" stroke="#000" stroke-miterlimit="10"/>
  <line x1="32.77" y1="89.06" x2="29.94" y2="79.49" fill="none" stroke="#000" stroke-miterlimit="10"/>
  <path d="M35.92,78.8l14.98,50.66c.46,1.54-.45,3.16-2.02,3.61h0c-1.57.45-3.22-.44-3.67-1.99l-12.43-42.03" fill="none" stroke="#000" stroke-miterlimit="10"/>
  <line x1="12.23" y1="87.17" x2="12.23" y2="79.79" fill="none" stroke="#231f20" stroke-linecap="round" stroke-miterlimit="10"/>
  <line x1="53.67" y1="87.24" x2="53.67" y2="79.47" fill="none" stroke="#231f20" stroke-linecap="round" stroke-miterlimit="10"/>
  <path d="M52.14,87.24h3.84c5.19,0,9.4,4.13,9.4,9.23v34.9c0,5.1-4.21,9.23-9.4,9.23H9.9c-5.19,0-9.4-4.13-9.4-9.23v-34.9c0-5.1,4.21-9.23,9.4-9.23h3.36" fill="none" stroke="#000" stroke-miterlimit="10"/>
  <g>
    <path d="M11.6,67.2h42.69c1.53,0,2.76,1.24,2.76,2.76v6.64c0,1.53-1.24,2.76-2.76,2.76H11.6c-1.53,0-2.76-1.24-2.76-2.76v-6.64c0-1.53,1.24-2.76,2.76-2.76Z" fill="url(#radial-gradient-2)"/>
    <path d="M54.28,67.7c1.25,0,2.26,1.02,2.26,2.26v6.64c0,1.25-1.02,2.26-2.26,2.26H11.6c-1.25,0-2.26-1.02-2.26-2.26v-6.64c0-1.25,1.02-2.26,2.26-2.26h42.69M54.28,66.7H11.6c-1.8,0-3.26,1.46-3.26,3.26v6.64c0,1.8,1.46,3.26,3.26,3.26h42.69c1.8,0,3.26-1.46,3.26-3.26v-6.64c0-1.8-1.46-3.26-3.26-3.26h0Z" fill="url(#radial-gradient-3)"/>
  </g>
  <path d="M35.83,57.17L50.25,4.73c.43-1.55,2.06-2.47,3.64-2.05h0c1.58.42,2.52,2.02,2.09,3.57l-16.71,60.77" fill="none" stroke="#000" stroke-miterlimit="10"/>
</svg>